<svg width="505" height="470" viewBox="0 0 505 470" fill="none" xmlns="http://www.w3.org/2000/svg">
<rect width="505" height="470" fill="#1E1E1E"/>
<rect width="505" height="470" fill="#F0F0F0"/>
<path d="M137.044 158L187.222 211.13V312H41.7778V158H137.044ZM137.044 136H41.7778C30.35 136 21 145.9 21 158V312C21 324.1 30.35 334 41.7778 334H187.222C198.65 334 208 324.1 208 312V211.13C208 205.3 205.818 199.69 201.871 195.62L151.692 142.49C147.848 138.31 142.55 136 137.044 136ZM62.5556 268H166.444V290H62.5556V268ZM62.5556 224H166.444V246H62.5556V224ZM62.5556 180H135.278V202H62.5556V180Z" fill="#717171"/>
<path d="M413.044 158L463.222 211.13V312H317.778V158H413.044ZM413.044 136H317.778C306.35 136 297 145.9 297 158V312C297 324.1 306.35 334 317.778 334H463.222C474.65 334 484 324.1 484 312V211.13C484 205.3 481.818 199.69 477.871 195.62L427.692 142.49C423.848 138.31 418.55 136 413.044 136ZM338.556 268H442.444V290H338.556V268ZM338.556 224H442.444V246H338.556V224ZM338.556 180H411.278V202H338.556V180Z" fill="#717171"/>
<line x1="257" y1="31" x2="257" y2="428" stroke="#AFB4B4" stroke-width="8" stroke-dasharray="6 6"/>
<g clip-path="url(#clip0_0_1)">
<path d="M232.542 255.917L216.25 272.25L232.542 288.583V276.333H261.167V268.167H232.542V255.917ZM289.75 247.75L273.458 231.417V243.667H244.833V251.833H273.458V264.083L289.75 247.75Z" fill="#4BD37B"/>
</g>
<mask id="path-5-inside-1_0_1" fill="white">
<rect x="44" y="169" width="111" height="42" rx="2"/>
</mask>
<rect x="44" y="169" width="111" height="42" rx="2" stroke="#FF0101" stroke-width="8" mask="url(#path-5-inside-1_0_1)"/>
<mask id="path-6-inside-2_0_1" fill="white">
<rect x="329" y="254" width="123" height="49" rx="2"/>
</mask>
<rect x="329" y="254" width="123" height="49" rx="2" stroke="#FF0101" stroke-width="8" mask="url(#path-6-inside-2_0_1)"/>
<line x1="151.85" y1="170.19" x2="332.85" y2="255.19" stroke="#FF0101" stroke-width="4"/>
<defs>
<clipPath id="clip0_0_1">
<rect width="98" height="98" fill="white" transform="translate(204 211)"/>
</clipPath>
</defs>
</svg>
