<svg width="505" height="470" viewBox="0 0 505 470" fill="none" xmlns="http://www.w3.org/2000/svg">
<rect width="505" height="470" fill="#1E1E1E"/>
<g clip-path="url(#clip0_0_1)">
<rect width="505" height="470" fill="#F0F0F0"/>
<g clip-path="url(#clip1_0_1)">
<path d="M143.333 357.625V447.208H71.6666V357.625H143.333ZM129.896 303.875H85.1041L76.1458 312.833H44.7916V330.75H170.208V312.833H138.854L129.896 303.875ZM161.25 339.708H53.75V447.208C53.75 457.062 61.8125 465.125 71.6666 465.125H143.333C153.187 465.125 161.25 457.062 161.25 447.208V339.708Z" fill="#717171"/>
</g>
<g clip-path="url(#clip2_0_1)">
<path d="M448 373L437.19 362.113L386.667 412.637L366.81 392.857L356 403.667L386.667 434.333L448 373ZM455.667 327H423.62C420.4 318.107 411.967 311.667 402 311.667C392.033 311.667 383.6 318.107 380.38 327H348.333C347.26 327 346.263 327.077 345.267 327.307C342.277 327.92 339.593 329.453 337.523 331.523C336.143 332.903 334.993 334.59 334.227 336.43C333.46 338.193 333 340.187 333 342.333V449.667C333 451.737 333.46 453.807 334.227 455.647C334.993 457.487 336.143 459.097 337.523 460.553C339.593 462.623 342.277 464.157 345.267 464.77C346.263 464.923 347.26 465 348.333 465H455.667C464.1 465 471 458.1 471 449.667V342.333C471 333.9 464.1 327 455.667 327ZM402 325.083C405.143 325.083 407.75 327.69 407.75 330.833C407.75 333.977 405.143 336.583 402 336.583C398.857 336.583 396.25 333.977 396.25 330.833C396.25 327.69 398.857 325.083 402 325.083ZM455.667 449.667H348.333V342.333H455.667V449.667Z" fill="#717171"/>
</g>
<g clip-path="url(#clip3_0_1)">
<path d="M252.5 31.75V45.125L270.333 27.2917L252.5 9.45833V22.8333C232.794 22.8333 216.833 38.7942 216.833 58.5C216.833 65.4996 218.884 72.0088 222.362 77.4925L228.871 70.9833C226.865 67.2829 225.75 63.0029 225.75 58.5C225.75 43.7429 237.743 31.75 252.5 31.75ZM282.638 39.5075L276.129 46.0167C278.091 49.7617 279.25 53.9971 279.25 58.5C279.25 73.2571 267.257 85.25 252.5 85.25V71.875L234.667 89.7083L252.5 107.542V94.1667C272.206 94.1667 288.167 78.2058 288.167 58.5C288.167 51.5004 286.116 44.9913 282.638 39.5075Z" fill="#4BD37B"/>
</g>
<path d="M265.158 136.333L293.333 166.118V222.667H211.667V136.333H265.158ZM265.158 124H211.667C205.25 124 200 129.55 200 136.333V222.667C200 229.45 205.25 235 211.667 235H293.333C299.75 235 305 229.45 305 222.667V166.118C305 162.85 303.775 159.705 301.558 157.423L273.383 127.638C271.225 125.295 268.25 124 265.158 124ZM223.333 198H281.667V210.333H223.333V198ZM223.333 173.333H281.667V185.667H223.333V173.333ZM223.333 148.667H264.167V161H223.333V148.667Z" fill="#717171"/>
<line x1="177.665" y1="211.378" x2="132.665" y2="298.378" stroke="#FF0101" stroke-width="6" stroke-dasharray="10 10"/>
<line x1="374.317" y1="305.342" x2="327.317" y2="211.342" stroke="#FF0101" stroke-width="6" stroke-dasharray="10 10"/>
</g>
<defs>
<clipPath id="clip0_0_1">
<rect width="505" height="470" fill="white"/>
</clipPath>
<clipPath id="clip1_0_1">
<rect width="215" height="215" fill="white" transform="translate(0 277)"/>
</clipPath>
<clipPath id="clip2_0_1">
<rect width="184" height="184" fill="white" transform="translate(310 304)"/>
</clipPath>
<clipPath id="clip3_0_1">
<rect width="107" height="107" fill="white" transform="translate(199 5)"/>
</clipPath>
</defs>
</svg>
