<svg width="505" height="470" viewBox="0 0 505 470" fill="none" xmlns="http://www.w3.org/2000/svg">
<rect width="505" height="470" fill="#1E1E1E"/>
<g clip-path="url(#clip0_0_1)">
<rect width="505" height="470" fill="#F0F0F0"/>
<rect x="18" y="208" width="469" height="60" rx="2" fill="url(#paint0_linear_0_1)"/>
<path d="M253.707 193.293C253.317 192.902 252.683 192.902 252.293 193.293L245.929 199.657C245.538 200.047 245.538 200.681 245.929 201.071C246.319 201.462 246.953 201.462 247.343 201.071L253 195.414L258.657 201.071C259.047 201.462 259.681 201.462 260.071 201.071C260.462 200.681 260.462 200.047 260.071 199.657L253.707 193.293ZM252.293 283.207C252.683 283.598 253.317 283.598 253.707 283.207L260.071 276.843C260.462 276.453 260.462 275.819 260.071 275.429C259.681 275.038 259.047 275.038 258.657 275.429L253 281.086L247.343 275.429C246.953 275.038 246.319 275.038 245.929 275.429C245.538 275.819 245.538 276.453 245.929 276.843L252.293 283.207ZM252 194V282.5H254V194H252Z" fill="#AFB4B4"/>
<path d="M104.201 40.4167L133.583 69.7992V125.583H48.4167V40.4167H104.201ZM104.201 28.25H48.4167C41.725 28.25 36.25 33.725 36.25 40.4167V125.583C36.25 132.275 41.725 137.75 48.4167 137.75H133.583C140.275 137.75 145.75 132.275 145.75 125.583V69.7992C145.75 66.575 144.473 63.4725 142.161 61.2217L112.778 31.8392C110.528 29.5275 107.425 28.25 104.201 28.25ZM60.5833 101.25H121.417V113.417H60.5833V101.25ZM60.5833 76.9167H121.417V89.0833H60.5833V76.9167ZM60.5833 52.5833H103.167V64.75H60.5833V52.5833Z" fill="#717171"/>
<path d="M136.5 73C151.688 73 164 60.6878 164 45.5C164 30.3122 151.688 18 136.5 18C121.312 18 109 30.3122 109 45.5C109 60.6878 121.312 73 136.5 73Z" fill="#4BD37B"/>
<path d="M149.333 29L130.083 48.8L123.667 42.2L117.25 48.8L130.083 62L155.75 35.6L149.333 29Z" fill="white"/>
<path d="M336.382 74.7083L366.167 106.305V166.292H279.833V74.7083H336.382ZM336.382 61.625H279.833C273.05 61.625 267.5 67.5125 267.5 74.7083V166.292C267.5 173.487 273.05 179.375 279.833 179.375H366.167C372.95 179.375 378.5 173.487 378.5 166.292V106.305C378.5 102.837 377.205 99.5013 374.862 97.0808L345.077 65.4846C342.795 62.9987 339.65 61.625 336.382 61.625ZM292.167 140.125H353.833V153.208H292.167V140.125ZM292.167 113.958H353.833V127.042H292.167V113.958ZM292.167 87.7917H335.333V100.875H292.167V87.7917Z" fill="#717171"/>
<path d="M369.123 109.747C384.519 109.747 397 96.5068 397 80.1747C397 63.8425 384.519 50.6027 369.123 50.6027C353.727 50.6027 341.247 63.8425 341.247 80.1747C341.247 96.5068 353.727 109.747 369.123 109.747Z" fill="#4BD37B"/>
<path d="M382.132 62.4315L362.619 83.7233L356.114 76.626L349.61 83.7233L362.619 97.9178L388.637 69.5288L382.132 62.4315Z" fill="white"/>
<path d="M175 340L186.547 320H163.453L175 340ZM99 282V285.097H103V282H99ZM99 291.292V297.486H103V291.292H99ZM99 303.681V306.778H103V303.681H99ZM99 306.778C99 308.435 100.343 309.778 102 309.778V305.778C102.552 305.778 103 306.225 103 306.778H99ZM102 309.778H104.977V305.778H102V309.778ZM110.931 309.778H116.885V305.778H110.931V309.778ZM122.839 309.778H128.793V305.778H122.839V309.778ZM134.747 309.778H137.725V305.778H134.747V309.778ZM137.725 309.778H140.747V305.778H137.725V309.778ZM146.793 309.778H152.839V305.778H146.793V309.778ZM158.885 309.778H164.931V305.778H158.885V309.778ZM170.977 309.778H174V305.778H170.977V309.778ZM174 309.778C173.448 309.778 173 309.33 173 308.778H177C177 307.121 175.657 305.778 174 305.778V309.778ZM173 308.778V311.38H177V308.778H173ZM173 316.583V321.787H177V316.583H173ZM173 326.991V332.194H177V326.991H173Z" fill="#AFB4B4"/>
<path d="M391.5 126L411.5 137.547V114.453L391.5 126ZM399.25 128H404.417V124H399.25V128ZM409.583 128H414.75V124H409.583V128ZM419.917 128H422.5V124H419.917V128ZM422.5 128C421.948 128 421.5 127.552 421.5 127H425.5C425.5 125.343 424.157 124 422.5 124V128ZM421.5 127V129.75H425.5V127H421.5ZM421.5 135.25V140.75H425.5V135.25H421.5ZM421.5 146.25V151.75H425.5V146.25H421.5ZM421.5 157.25V162.75H425.5V157.25H421.5ZM421.5 168.25V171H425.5V168.25H421.5ZM421.5 171C421.5 172.657 422.843 174 424.5 174V170C425.052 170 425.5 170.448 425.5 171H421.5ZM424.5 174H428.375V170H424.5V174ZM436.125 174H440V170H436.125V174ZM440 174H442.5V170H440V174ZM447.5 174H452.5V170H447.5V174ZM457.5 174H462.5V170H457.5V174ZM467.5 174H470V170H467.5V174ZM470 174C469.448 174 469 173.552 469 173H473C473 171.343 471.657 170 470 170V174ZM469 173V176.625H473V173H469ZM469 183.875V191.125H473V183.875H469ZM469 198.375V202H473V198.375H469Z" fill="#AFB4B4"/>
<path d="M164 100L184 111.547V88.453L164 100ZM171.75 102H176.917V98H171.75V102ZM182.083 102H187.25V98H182.083V102ZM192.417 102H195V98H192.417V102ZM195 102C194.448 102 194 101.552 194 101H198C198 99.3431 196.657 98 195 98V102ZM194 101V103.625H198V101H194ZM194 108.875V114.125H198V108.875H194ZM194 119.375V122H198V119.375H194ZM194 122V125.25H198V122H194ZM194 131.75V138.25H198V131.75H194ZM194 144.75V151.25H198V144.75H194ZM194 157.75V164.25H198V157.75H194ZM194 170.75V174H198V170.75H194ZM194 174C194 173.448 194.448 173 195 173V177C196.657 177 198 175.657 198 174H194ZM195 173H192.5V177H195V173ZM187.5 173H182.5V177H187.5V173ZM177.5 173H172.5V177H177.5V173ZM167.5 173H165V177H167.5V173ZM165 173C163.343 173 162 174.343 162 176H166C166 176.552 165.552 177 165 177V173ZM162 176V178.437H166V176H162ZM162 183.312V188.187H166V183.312H162ZM162 193.062V195.5H166V193.062H162Z" fill="#AFB4B4"/>
<path d="M358.5 380L338.5 368.453V391.547L358.5 380ZM349 304H346.417V308H349V304ZM341.25 304H336.083V308H341.25V304ZM330.917 304H325.75V308H330.917V304ZM320.583 304H318V308H320.583V304ZM318 304C316.343 304 315 305.343 315 307H319C319 307.552 318.552 308 318 308V304ZM315 307V309.977H319V307H315ZM315 315.931V321.885H319V315.931H315ZM315 327.839V333.793H319V327.839H315ZM315 339.747V342.725H319V339.747H315ZM315 342.725V345.747H319V342.725H315ZM315 351.793V357.839H319V351.793H315ZM315 363.885V369.931H319V363.885H315ZM315 375.977V379H319V375.977H315ZM315 379C315 380.657 316.343 382 318 382V378C318.552 378 319 378.448 319 379H315ZM318 382H321.375V378H318V382ZM328.125 382H334.875V378H328.125V382ZM341.625 382H348.375V378H341.625V382Z" fill="#AFB4B4"/>
<path d="M348 279.5V307" stroke="#AFB4B4" stroke-width="4" stroke-dasharray="6 6"/>
<path d="M438.478 331.083L466.25 362.076V420.917H385.75V331.083H438.478ZM438.478 318.25H385.75C379.425 318.25 374.25 324.025 374.25 331.083V420.917C374.25 427.975 379.425 433.75 385.75 433.75H466.25C472.575 433.75 477.75 427.975 477.75 420.917V362.076C477.75 358.675 476.542 355.402 474.357 353.028L446.585 322.036C444.457 319.598 441.525 318.25 438.478 318.25ZM397.25 395.25H454.75V408.083H397.25V395.25ZM397.25 369.583H454.75V382.417H397.25V369.583ZM397.25 343.917H437.5V356.75H397.25V343.917Z" fill="#717171"/>
<path d="M469.007 365.452C483.362 365.452 495 352.465 495 336.445C495 320.425 483.362 307.438 469.007 307.438C454.651 307.438 443.014 320.425 443.014 336.445C443.014 352.465 454.651 365.452 469.007 365.452Z" fill="#4BD37B"/>
<path d="M481.137 319.041L462.942 339.926L456.877 332.964L450.812 339.926L462.942 353.849L487.202 326.003L481.137 319.041Z" fill="white"/>
<path d="M202.887 359.167L230.458 387.342V440.833H150.542V359.167H202.887ZM202.887 347.5H150.542C144.263 347.5 139.125 352.75 139.125 359.167V440.833C139.125 447.25 144.263 452.5 150.542 452.5H230.458C236.738 452.5 241.875 447.25 241.875 440.833V387.342C241.875 384.25 240.676 381.275 238.507 379.117L210.936 350.942C208.824 348.725 205.913 347.5 202.887 347.5ZM161.958 417.5H219.042V429.167H161.958V417.5ZM161.958 394.167H219.042V405.833H161.958V394.167ZM161.958 370.833H201.917V382.5H161.958V370.833Z" fill="#717171"/>
<path d="M233.195 390.411C247.447 390.411 259 378.605 259 364.041C259 349.477 247.447 337.671 233.195 337.671C218.944 337.671 207.39 349.477 207.39 364.041C207.39 378.605 218.944 390.411 233.195 390.411Z" fill="#4BD37B"/>
<path d="M245.237 348.219L227.174 367.205L221.153 360.877L215.132 367.205L227.174 379.863L251.259 354.548L245.237 348.219Z" fill="white"/>
<path d="M-1.06066 236.939C-1.64645 237.525 -1.64645 238.475 -1.06066 239.061L8.48528 248.607C9.07107 249.192 10.0208 249.192 10.6066 248.607C11.1924 248.021 11.1924 247.071 10.6066 246.485L2.12132 238L10.6066 229.515C11.1924 228.929 11.1924 227.979 10.6066 227.393C10.0208 226.808 9.07107 226.808 8.48528 227.393L-1.06066 236.939ZM506.061 239.061C506.646 238.475 506.646 237.525 506.061 236.939L496.515 227.393C495.929 226.808 494.979 226.808 494.393 227.393C493.808 227.979 493.808 228.929 494.393 229.515L502.879 238L494.393 246.485C493.808 247.071 493.808 248.021 494.393 248.607C494.979 249.192 495.929 249.192 496.515 248.607L506.061 239.061ZM0 239.5L505 239.5V236.5L0 236.5L0 239.5Z" fill="#AFB4B4"/>
</g>
<defs>
<linearGradient id="paint0_linear_0_1" x1="18" y1="238" x2="487" y2="238" gradientUnits="userSpaceOnUse">
<stop stop-color="#FF0101"/>
<stop offset="0.5" stop-color="#B55D8F"/>
<stop offset="1" stop-color="#386BCA"/>
</linearGradient>
<clipPath id="clip0_0_1">
<rect width="505" height="470" fill="white"/>
</clipPath>
</defs>
</svg>
